<?xml version="1.0" encoding="UTF-8"?>
<svg width="235px" height="50px" viewBox="0 0 235 50" version="1.1" xmlns="http://www.w3.org/2000/svg" xmlns:xlink="http://www.w3.org/1999/xlink">
    <!-- Generator: Sketch 49.2 (51160) - http://www.bohemiancoding.com/sketch -->
    <title>Artboard</title>
    <desc>Created with Sketch.</desc>
    <defs>
        <path d="M22.9750488,0.0425675243 C22.0094036,0.0447534242 21.0449409,0.251608583 20.3122519,0.663133001 L2.67816967,10.5683658 C1.20522365,11.3956714 0,13.4266025 0,15.0814438 L0,34.8915643 C0,36.5462905 1.20522365,38.5774517 2.67816967,39.4049874 L10.4864627,43.7908229 L20.3122519,49.309875 C21.7851979,50.1374107 24.1956452,50.1374107 25.668473,49.309875 L43.3026735,39.4049874 C44.7760925,38.5774517 45.9808432,36.5462905 45.9808432,34.8915643 L45.9808432,15.0814438 C45.9808432,13.4266025 44.7760925,11.3956714 43.3026735,10.5683658 L25.668473,0.663133001 C24.9359023,0.251608583 23.9714396,0.0447534242 23.0057943,0.0425675243 L22.9750488,0.0425675243 Z M21.5612288,11.0811319 C29.394946,11.0811319 35.8537481,17.319115 35.8537481,24.9865615 C35.8537481,32.6540081 29.4422468,38.8917611 21.5612288,38.8917611 L14.5266581,38.8917611 C12.0991825,38.8917611 10.1269769,37.4774838 10.1269769,34.611539 L10.1269769,15.3615841 C10.1269769,12.9982812 12.0958715,11.0821673 14.5247661,11.081247 L14.5266581,30.3310868 C14.5266581,34.354063 15.210982,34.611539 18.9262211,34.611539 L21.5612288,34.6132647 C27.0171362,34.6132647 31.4559589,30.2947318 31.4559589,24.9865615 C31.4559589,19.6782762 27.0171362,15.3597433 21.5612288,15.3597433 L17.7873368,15.3614691 C17.7873368,13.2229687 19.4724267,11.0811319 21.5612288,11.0811319 Z" id="path-1"></path>
        <linearGradient x1="50%" y1="0%" x2="50%" y2="100%" id="linearGradient-3">
            <stop stop-color="#FFFFFF" offset="0%"></stop>
            <stop stop-color="#D6D6D6" offset="100%"></stop>
        </linearGradient>
        <linearGradient x1="50%" y1="3.73238801%" x2="50%" y2="97.8719745%" id="linearGradient-4">
            <stop stop-color="#0099DA" offset="0%"></stop>
            <stop stop-color="#78C479" offset="100%"></stop>
        </linearGradient>
    </defs>
    <g id="Artboard" stroke="none" stroke-width="1" fill="none" fill-rule="evenodd">
        <g id="d-emblem-color">
            <g id="Group-3">
                <mask id="mask-2" fill="white">
                    <use xlink:href="#path-1"></use>
                </mask>
                <g id="Clip-2"></g>
                <path d="M20.3122519,0.663133001 L2.67816967,10.5683658 C1.20522365,11.3956714 0,13.4266025 0,15.0814438 L0,34.8915643 C0,36.5462905 1.20522365,38.5774517 2.67816967,39.4049874 L10.4864627,43.7908229 L20.3122519,49.309875 C21.7851979,50.1374107 24.1956452,50.1374107 25.668473,49.309875 L43.3026735,39.4049874 C44.7760925,38.5774517 45.9808432,36.5462905 45.9808432,34.8915643 L45.9808432,15.0814438 C45.9808432,13.4266025 44.7760925,11.3956714 43.3026735,10.5683658 L25.668473,0.663133001 C24.9359023,0.251608583 23.9714396,0.0447534242 23.0057943,0.0425675243 C22.0094036,0.0447534242 21.0449409,0.251608583 20.3122519,0.663133001 Z M21.5612288,11.0811319 C29.394946,11.0811319 35.8537481,17.319115 35.8537481,24.9865615 C35.8537481,32.6540081 29.4422468,38.8917611 21.5612288,38.8917611 L14.5266581,38.8917611 C12.0991825,38.8917611 10.1269769,37.4774838 10.1269769,34.611539 L10.1269769,15.3615841 C10.1269769,12.9982812 12.0958715,11.0821673 14.5247661,11.081247 L14.5266581,30.3310868 C14.5266581,34.354063 15.210982,34.611539 18.9262211,34.611539 L21.5612288,34.6132647 C27.0171362,34.6132647 31.4559589,30.2947318 31.4559589,24.9865615 C31.4559589,19.6782762 27.0171362,15.3597433 21.5612288,15.3597433 L17.7873368,15.3614691 C17.7873368,13.2229687 19.4724267,11.0811319 21.5612288,11.0811319 Z" id="Fill-1" fill="url(#linearGradient-3)" mask="url(#mask-2)"></path>
                <path d="M-0.427906983,19.6035278 L-0.427906983,34.9909834 C-0.427906983,36.6405404 0.813092828,38.6653565 2.32976214,39.4903071 L8.35077859,42.7645339 L14.5299641,38.9787987 L14.5299641,38.9786841 C12.0304307,38.9786841 9.9996816,37.5688248 9.9996816,34.7118328 L9.9996816,15.5220124 C9.9996816,14.1053866 10.7332985,12.8507002 11.8615466,12.0746067 L11.8615466,12.0743773 L-0.427906983,19.6035278 Z" id="Path" fill="url(#linearGradient-4)" mask="url(#mask-2)"></path>
                <path d="M-0.427906983,19.6035278 L-0.427906983,34.9909834 C-0.427906983,36.6405404 0.813092828,38.6653565 2.32976214,39.4903071 L8.35077859,42.7645339 L14.5299641,38.9787987 L14.5299641,38.9786841 C12.0304307,38.9786841 9.9996816,37.5688248 9.9996816,34.7118328 L9.9996816,15.5220124 C9.9996816,14.1053866 10.7332985,12.8507002 11.8615466,12.0746067 L11.8615466,12.0743773 L-0.427906983,19.6035278 Z" id="Path" fill="url(#linearGradient-4)" mask="url(#mask-2)"></path>
            </g>
            <g id="Group-6" transform="translate(0.000000, 12.000000)"></g>
        </g>
        <text id="dbrowser" font-family="MontserratAlternates-Regular, Montserrat Alternates" font-size="36" font-weight="normal" fill="#FFFFFF">
            <tspan x="53" y="38">dbrowser</tspan>
        </text>
    </g>
</svg>